<?xml version="1.0" encoding="utf-8"?>
<!-- Generator: Adobe Illustrator 25.4.1, SVG Export Plug-In . SVG Version: 6.00 Build 0)  -->
<svg version="1.0" id="katman_1" xmlns="http://www.w3.org/2000/svg" xmlns:xlink="http://www.w3.org/1999/xlink" x="0px" y="0px"
	 viewBox="0 0 1700 1200" style="enable-background:new 0 0 1700 1200;" xml:space="preserve">
<style type="text/css">
	.st0{fill:#0033AD;}
	.st1{fill:#FFFFFF;}
</style>
<path class="st0" d="M850,125.5L850,125.5c262.3,0,475,212.7,475,475l0,0c0,262.3-212.7,475-475,475l0,0c-262.3,0-475-212.7-475-475
	l0,0C375,338.2,587.7,125.5,850,125.5z"/>
<path class="st1" d="M705,599.7c-1.4,23.8,16.9,44.2,40.7,45.5c0.9,0,1.7,0,2.6,0c24,0,43.3-19.3,43.1-43.3
	c0-24-19.3-43.3-43.3-43.1C725.2,558.7,706.2,576.7,705,599.7z"/>
<path class="st1" d="M543.8,588.5c-7.7-0.5-14.4,5.5-14.7,13.2c-0.3,7.7,5.5,14.4,13.2,14.7c7.7,0.5,14.2-5.5,14.7-13.2
	C557.5,595.5,551.5,589,543.8,588.5z"/>
<path class="st1" d="M702.3,348.7c6.8-3.4,9.6-12,6.2-18.8c-3.4-6.8-12-9.6-18.8-6.2c-6.8,3.4-9.6,11.8-6.2,18.7
	C686.9,349.4,695.3,352.3,702.3,348.7C702.1,348.7,702.3,348.7,702.3,348.7z"/>
<path class="st1" d="M746.1,425.2c10.6-5.3,14.9-18.3,9.6-28.9c-5.3-10.6-18.3-14.9-28.9-9.6c-10.6,5.3-14.9,18.3-9.6,28.9
	C722.5,426.3,735.5,430.5,746.1,425.2z"/>
<path class="st1" d="M598.6,477.8c8.2,5.3,19.2,3.1,24.6-5.1c5.3-8.2,3.1-19.2-5.1-24.6c-8.2-5.3-19.2-3.1-24.6,5.1
	C588,461.4,590.3,472.5,598.6,477.8z"/>
<path class="st1" d="M624.8,580.8c-12-0.7-22.1,8.4-22.8,20.4c-0.7,12,8.4,22.1,20.4,22.8c12,0.7,22.1-8.4,22.8-20.4
	C645.8,591.8,636.7,581.5,624.8,580.8z"/>
<path class="st1" d="M600.9,725.8c-8.7,4.5-12.3,15.1-7.9,24c4.5,8.7,15.1,12.3,24,7.9c8.7-4.5,12.3-15.1,7.9-24
	C620.5,725,609.7,721.4,600.9,725.8z"/>
<path class="st1" d="M684.8,536.2c11.8,7.7,27.6,4.5,35.1-7.4c7.7-11.8,4.5-27.6-7.4-35.1c-11.8-7.7-27.6-4.5-35.1,7.4
	C669.8,512.7,673,528.5,684.8,536.2z"/>
<path class="st1" d="M951,423.5c9.9,6.5,23.4,3.8,30-6.2c6.5-9.9,3.8-23.4-6.2-30c-9.9-6.5-23.4-3.8-30,6.2
	C938.2,403.7,940.9,417,951,423.5z"/>
<path class="st1" d="M995.2,347.4c6.5,4.3,15.1,2.4,19.3-4.1c4.3-6.5,2.4-15.1-4.1-19.3c-6.5-4.3-15.1-2.4-19.3,3.9
	C986.9,334.4,988.8,343.1,995.2,347.4z"/>
<path class="st1" d="M954.2,558.4c-23.8-1.4-44.3,16.9-45.5,40.7c-1.4,23.8,16.9,44.3,40.7,45.5c0.9,0,1.7,0,2.4,0
	c23.8,0,43.1-19.3,43.1-43.3C995.1,578.6,977.2,559.6,954.2,558.4z"/>
<path class="st1" d="M760.3,533.1c7.4,14.5,22.3,23.8,38.7,23.8c23.8,0,43.1-19.3,43.1-43.3c0-6.7-1.5-13.4-4.6-19.5
	c-10.8-21.4-36.8-30-58-19.2C758.1,485.8,749.5,511.9,760.3,533.1z"/>
<path class="st1" d="M1099,477.8c8.7-4.5,12.2-15.2,7.7-24c-4.4-8.7-15.2-12.2-24-7.7c-8.7,4.5-12.2,15.1-7.9,23.8
	C1079.5,478.6,1090.2,482.2,1099,477.8z"/>
<path class="st1" d="M989.5,491.5c-12.5,6.3-17.6,21.6-11.3,34.1c6.3,12.5,21.6,17.6,34.1,11.3c12.5-6.3,17.6-21.6,11.3-34.1
	C1017.2,490.3,1002,485.3,989.5,491.5z"/>
<path class="st1" d="M848.3,340.9c9.8,0.5,18.1-7,18.8-16.8c0.7-9.8-7-18.1-16.8-18.8c-9.8-0.5-18.1,6.8-18.8,16.6
	C831,331.8,838.5,340.2,848.3,340.9z"/>
<path class="st1" d="M848.1,452.6c14,0.9,26-9.9,26.7-24c0.9-14-9.9-26-24-26.7c-14-0.9-26,9.9-26.7,24
	C823.5,440,834.1,451.9,848.1,452.6z"/>
<path class="st1" d="M710.5,712.1c12.5-6.3,17.6-21.6,11.3-34.1c-6.3-12.5-21.6-17.6-34.1-11.3c-12.5,6.3-17.6,21.6-11.3,34.1
	C682.8,713.3,698,718.4,710.5,712.1z"/>
<path class="st1" d="M864.6,489.8c-13,20-7.5,46.7,12.5,59.7c20,13,46.7,7.5,59.7-12.5c13-20,7.5-46.7-12.5-59.7
	c-7-4.6-15.2-7-23.6-7C886.1,470.3,872.6,477.6,864.6,489.8z"/>
<path class="st1" d="M939.7,670.5c-10.8-21.4-36.8-30-58-19.2c-21.4,10.8-30,36.8-19.2,58c10.8,21.4,36.8,30,58,19.2
	c21.2-10.6,30-36.3,19.3-57.7C939.9,670.7,939.9,670.7,939.7,670.5z"/>
<path class="st1" d="M1015.2,667.4c-11.8-7.7-27.6-4.5-35.1,7.4c-7.7,11.8-4.5,27.6,7.4,35.1c11.8,7.7,27.6,4.5,35.1-7.4
	C1030.2,690.9,1027,675.1,1015.2,667.4z"/>
<path class="st1" d="M1098,602.6c0.7-12-8.4-22.1-20.4-22.8c-12-0.7-22.1,8.4-22.8,20.4c-0.7,12,8.4,22.1,20.4,22.8
	C1087.1,623.6,1097.3,614.4,1098,602.6z"/>
<path class="st1" d="M1157.7,587.2c-7.7-0.5-14.4,5.5-14.7,13.2c-0.3,7.7,5.5,14.4,13.2,14.7c7.7,0.5,14.2-5.5,14.7-13.2
	C1171.3,594.2,1165.5,587.7,1157.7,587.2z"/>
<path class="st1" d="M1101.4,725.8c-8.2-5.3-19.2-3.1-24.6,5.1c-5.3,8.2-3.1,19.2,5.1,24.6c8.2,5.3,19.2,3.1,24.6-5.1
	C1112,742.2,1109.7,731.1,1101.4,725.8z"/>
<path class="st1" d="M704.7,856.2c-6.5-4.3-15.1-2.4-19.3,3.9c-4.3,6.5-2.4,15.1,3.9,19.3c6.5,4.3,15.1,2.4,19.3-3.9
	C713.1,869.2,711.2,860.5,704.7,856.2z"/>
<path class="st1" d="M997.7,854.9c-6.8,3.4-9.6,12-6.2,18.8c3.4,6.8,12,9.6,18.8,6.2c6.8-3.4,9.6-11.8,6.2-18.7
	C1013.1,854.2,1004.7,851.3,997.7,854.9C997.9,854.9,997.7,854.9,997.7,854.9z"/>
<path class="st1" d="M835.4,713.8c13-20,7.5-46.7-12.5-59.9c-20-13-46.7-7.5-59.9,12.5c-13.2,20-7.5,46.7,12.5,59.9
	c7,4.6,15.2,7,23.6,7C813.9,733.5,827.4,726.1,835.4,713.8z"/>
<path class="st1" d="M749,780.1c-9.9-6.5-23.4-3.8-30,6.2c-6.5,9.9-3.8,23.4,6.2,30c9.9,6.5,23.4,3.8,30-6.2
	C761.9,800.1,759.1,786.6,749,780.1z"/>
<path class="st1" d="M849.8,862.7c-9.8-0.5-18.1,7-18.8,16.8c-0.7,9.8,7,18.1,16.8,18.8c9.8,0.5,18.1-6.8,18.8-16.6
	C867.1,871.8,859.6,863.4,849.8,862.7z"/>
<path class="st1" d="M850,751c-14-0.9-26,9.9-26.7,24c-0.9,14,9.9,26,24,26.7c14,0.7,26-9.9,26.7-24C874.8,763.8,864,751.7,850,751z
	"/>
<path class="st1" d="M953.9,778.4c-10.6,5.5-14.9,18.5-9.4,29.1s18.5,14.9,29.1,9.4c10.6-5.3,14.9-18.3,9.6-28.9
	C977.7,777.3,964.7,772.9,953.9,778.4z"/>
</svg>
