<?xml version="1.0" encoding="utf-8"?>
<!-- Generator: Adobe Illustrator 25.4.1, SVG Export Plug-In . SVG Version: 6.00 Build 0)  -->
<svg version="1.0" id="katman_1" xmlns="http://www.w3.org/2000/svg" xmlns:xlink="http://www.w3.org/1999/xlink" x="0px" y="0px"
	 viewBox="0 0 1700 1200" style="enable-background:new 0 0 1700 1200;" xml:space="preserve">
<style type="text/css">
	.st0{fill:#1D1D1B;}
</style>
<path class="st0" d="M663.3,524.7c0,32-26,57.9-58,58h-63.9v81.5h-29.1V466.5h93.1C637.5,466.6,663.4,492.6,663.3,524.7
	C663.3,524.7,663.3,524.7,663.3,524.7z M605.4,553.6c15.9-0.2,28.8-13,29.1-28.8c0.1-16-12.9-29.1-28.9-29.1c-0.1,0-0.2,0-0.2,0
	h-63.9v58H605.4z"/>
<path class="st0" d="M820.4,591.6c0,43.3-35.1,78.5-78.5,78.5c-43.3,0-78.5-35.1-78.5-78.5c0-43.3,35.1-78.5,78.5-78.5c0,0,0,0,0,0
	C785.1,513.4,820.1,548.4,820.4,591.6z M791.2,591.6c0-27.3-22.1-49.4-49.4-49.4s-49.4,22.1-49.4,49.4c0,27.3,22.1,49.4,49.4,49.4
	c27.2,0.1,49.3-22,49.4-49.2C791.2,591.8,791.2,591.7,791.2,591.6L791.2,591.6z"/>
<path class="st0" d="M850.1,466.5h29.1v197.7h-29.1V466.5z"/>
<path class="st0" d="M1053.4,518.5l-65,197.2h-30.8l17.3-52h-30.5l-47.7-123.6h30.5L975,663.5l47.8-145H1053.4z"/>
<path class="st0" d="M1220.7,518.5V661c0,36.9-33.2,61-72.3,61l-0.3-0.3c-24.6,0.1-48.1-9.9-65-27.8l20.8-20.3
	c11.6,11.9,26.4,20.3,44.5,20.3c27.8-0.8,43.4-12.4,43.4-32.9v-44.3l-15.6,45.3c-10.5,5.1-22,7.7-33.7,7.6
	c-43.2-0.7-77.7-36.2-77-79.4c0.6-42.3,34.8-76.4,77-77c11.7-0.1,23.2,2.5,33.7,7.5l15.6,45.3v-47.4H1220.7z M1142.5,542
	c-27.3,0-49.4,22.1-49.4,49.4s22.1,49.4,49.4,49.4s49.4-22.1,49.4-49.4C1191.8,564.1,1169.7,542,1142.5,542z"/>
<path class="st0" d="M1396.6,591.6c0,43.3-35.1,78.5-78.5,78.5s-78.5-35.1-78.5-78.5s35.1-78.5,78.5-78.5l0,0
	C1361.4,513.4,1396.4,548.4,1396.6,591.6z M1367.5,591.6c0-27.3-22.1-49.4-49.4-49.4c-27.3,0-49.4,22.1-49.4,49.4
	c0,27.3,22.1,49.4,49.4,49.4c27.2,0,49.3-22,49.4-49.2C1367.5,591.7,1367.5,591.7,1367.5,591.6z"/>
<path class="st0" d="M1569,664.2h-29.1v-78.5c0.5-24.1-18.6-44-42.7-44.5c-24.1-0.5-44,18.6-44.5,42.7c0,0.6,0,1.2,0,1.8v78.5h-29.1
	V518.5h29.1V563l18.9-45.9c37.8-13.6,79.4,5.9,93.1,43.7c2.9,8,4.3,16.4,4.3,24.8L1569,664.2z"/>
<path class="st0" d="M593.1,791.3c0,19.9-18.1,33.3-39.7,33.3c-15.5,0-30.3-6.3-41.1-17.4l11.3-11.1c7.5,7.7,17.1,12.9,28.9,12.9
	c15.9,0,24.8-5.5,24.8-17.2c0-9.4-8.1-15.8-24.8-18.1c-25.8-3.8-36.1-14-36.1-34.1c0-18.6,18.6-29.6,37-29.6
	c13.2-0.1,25.9,5.3,34.9,14.9l-11.2,11.4c-6-6.8-14.6-10.9-23.7-11.2c-11.3-0.6-21.2,5.5-21.2,15c0,9.5,6.5,16.1,18.7,18.1
	C576.6,762.7,593.1,769.1,593.1,791.3z"/>
<path class="st0" d="M679.4,757.8h-39.2v63.7h-15.9v-63.7h-23.9v-15.9h23.9v-28.5h15.9v28.5h39.2V757.8z"/>
<path class="st0" d="M672.9,741.8h15.9v42.9c-0.4,13.1,10,24.1,23.1,24.5c13.1,0.4,24.1-10,24.5-23.1c0-0.4,0-0.9,0-1.3v-42.9h16
	v79.6h-15.9v-24.3l-10.3,25.1c-20.5,7.5-43.3-3-50.8-23.5c-1.6-4.4-2.5-9.2-2.4-13.9L672.9,741.8z"/>
<path class="st0" d="M852.9,821.4h-15.8v-25.8l-8.5,24.8c-5.8,2.8-12.1,4.3-18.6,4.3c-23.7-0.5-42.6-20.1-42.1-43.9
	c0.5-23,19-41.6,42.1-42.1c6.4,0,12.8,1.5,18.6,4.4l8.5,24.6v-54.3h15.8L852.9,821.4z M810,754.6c-14.9,0-27,12.2-27,27.1
	c0,14.9,12.2,27,27.1,27c14.9,0,27-12.2,27-27.1c0,0,0,0,0,0c0-14.9-12.1-27-27-27C810.1,754.6,810,754.6,810,754.6z"/>
<path class="st0" d="M874.8,713.3h19v19h-19V713.3z M876.5,741.8h15.9v79.6h-15.9V741.8z"/>
<path class="st0" d="M994.4,781.8c0,23.7-19.2,42.9-42.9,42.9c-23.7,0-42.9-19.2-42.9-42.9c0-23.7,19.2-42.9,42.9-42.9
	c0,0,0,0,0.1,0C975.2,739,994.3,758.1,994.4,781.8z M978.5,781.8c0-14.9-12.1-27-27-27c-14.9,0-27,12.1-27,27c0,14.9,12.1,27,27,27
	c0,0,0.1,0,0.1,0C966.4,808.7,978.5,796.6,978.5,781.8C978.5,781.8,978.5,781.8,978.5,781.8z"/>
<path class="st0" d="M1039.7,824.5c-13.7,0-26.8-5.5-36.4-15.2l11.3-11.1c6.3,6.5,14.4,11.1,24.3,11.1c11.3,0,20.8-2.5,20.8-10.8
	c0-8.6-11.8-9.9-23.2-10.9c-18.9-1.5-30.4-10.9-30.4-24.9c0-14.3,13.3-24,32.6-24h0.3c11.6-0.1,22.8,4.6,30.8,13.1l-11.3,11.1
	c-5-5.6-12-8.9-19.5-9.2h-0.1c-9.9,0-17.2,1.8-17.2,10.2c0.4,5,5.9,8.4,14.9,9.2c23.2,2.1,38.9,6.9,38.9,24.9
	C1075.5,816,1058.4,824.5,1039.7,824.5z"/>
<path class="st0" d="M462.6,660.7c0,0,0.1-0.2,0.2-0.3l0.3-0.4c0.1-0.1,0.1-0.2,0.1-0.2c0,0,0-0.1,0-0.1c0.1-0.1,0.1-0.3,0.2-0.4
	V659l0.2-0.4l0.2-0.4l0.2-0.5c0-0.1,0.1-0.3,0.1-0.4V657c0,0,0-0.1,0-0.2c0-0.2,0-0.3,0-0.5c0-0.2,0-0.3,0-0.5c0-0.2,0-0.3,0-0.5
	c0-0.2,0-0.4,0-0.5l0,0l0.1-181.1c0-3.5-1.9-6.8-4.9-8.5l-156.5-90.5l0,0l-0.4-0.2c-0.1-0.1-0.3-0.2-0.5-0.2
	c-0.2-0.1-0.3-0.1-0.5-0.2l-0.5-0.2l-0.4-0.1l-0.5-0.1h-0.5h-0.4l0,0c-0.2,0-0.4,0-0.6,0h-0.5h-0.3h-0.5h-0.6h-0.4h-0.5l-0.6,0.1
	l-0.4,0.1l-0.5,0.2l-0.5,0.2l-0.5,0.2l-0.3,0.1l0,0l-157.1,90.6c-3.1,1.8-4.9,5-4.9,8.6v181l0,0c0,0.2,0,0.3,0,0.5
	c0,0.2,0,0.3,0,0.5c0,0.2,0,0.3,0,0.5c0,0.2,0,0.3,0,0.5c0,0.1,0,0.1,0,0.2v0.3c0,0.1,0.1,0.3,0.1,0.5l0.2,0.5l0.2,0.4l0.2,0.4
	c0,0,0,0,0,0.1c0,0.1,0.1,0.3,0.2,0.4v0.1l0.7,0.3l0.3,0.4l0.2,0.4l0,0c0,0.1,0.2,0.2,0.3,0.4l0.4,0.4l0.3,0.3
	c0.1,0.1,0.2,0.2,0.3,0.3l0.2,0.2l0.3,0.2l0.4,0.3l0.4,0.3l0.5,0.3l0,0l157,85.9c3,1.6,6.5,1.6,9.5,0l156.8-85.9l0,0l0.5-0.3
	l0.4-0.3l0.4-0.3l0.3-0.2l0.2-0.1c0.1-0.1,0.2-0.2,0.3-0.3l0.3-0.3l0.4-0.4l0.3-0.4C462.5,660.8,462.6,660.8,462.6,660.7z
	 M228.2,524l69.7-121l134.9,233.6l4.8,8.3H158L228.2,524z M444.8,617.9L324.9,410.3l119.6,69.2L444.8,617.9z M270.9,410.2L150.7,618
	V479.5L270.9,410.2z M297.9,729.5l-118.5-64.8h236.7L297.9,729.5z"/>
</svg>
